<?xml version="1.0" encoding="UTF-8"?>
<svg width="444px" height="444px" viewBox="0 0 444 444" version="1.1" xmlns="http://www.w3.org/2000/svg" xmlns:xlink="http://www.w3.org/1999/xlink">
    <!-- Generator: Sketch 60.1 (88133) - https://sketch.com -->
    <title>Artboard</title>
    <desc>Created with Sketch.</desc>
    <g id="Artboard" stroke="none" stroke-width="1" fill="none" fill-rule="evenodd">
        <polygon id="Star" stroke="#000000" stroke-width="6" fill="#000000" points="222 411.421875 198.538173 438.727937 181.494867 407.016676 152.711568 428.640738 142.883708 394.007062 110.124813 408.938007 107.97194 373.001348 72.7692174 380.541022 78.3919965 344.981738 42.3914874 344.777593 55.527004 311.258397 20.4120518 303.31998 40.4461038 273.408191 7.85864461 258.106693 33.8544619 233.200955 5.31824919 211.251857 36.0602963 192.516733 12.9096516 164.946351 46.9604646 153.257875 30.2778864 121.355368 66.0452871 117.260081 56.610834 82.5171762 92.4223785 86.2065682 90.6771953 50.2478047 124.858376 61.5493643 130.884065 26.0561339 161.836607 44.4414126 175.351414 11.0733394 201.628012 35.6826621 222 6 242.371988 35.6826621 268.648586 11.0733394 282.163393 44.4414126 313.115935 26.0561339 319.141624 61.5493643 353.322805 50.2478047 351.577621 86.2065682 387.389166 82.5171762 377.954713 117.260081 413.722114 121.355368 397.039535 153.257875 431.090348 164.946351 407.939704 192.516733 438.681751 211.251857 410.145538 233.200955 436.141355 258.106693 403.553896 273.408191 423.587948 303.31998 388.472996 311.258397 401.608513 344.777593 365.608003 344.981738 371.230783 380.541022 336.02806 373.001348 333.875187 408.938007 301.116292 394.007062 291.288432 428.640738 262.505133 407.016676 245.461827 438.727937"></polygon>
    </g>
</svg>